<?xml version="1.0" encoding="UTF-8"?>
<svg id="Layer_1" xmlns="http://www.w3.org/2000/svg" viewBox="0 0 254.29 106.03">
  <defs>
    <style>
      .cls-1 {
        fill: #f4dba1;
      }
    </style>
  </defs>
  <path class="cls-1" d="M138.87,20.11c-.92,0-2.15-.45-3.67-1.36-.62,2.04-1.49,3.88-2.6,5.52,1.17.96,2.59,1.44,4.25,1.44,3.41,0,5.12-2.22,5.12-6.68-1.03.72-2.06,1.08-3.1,1.08Z"/>
  <path class="cls-1" d="M243.44,51.65l7.52-21.78-7.89,1.42-3.29,8.74c-1.04,2.72-2.33,5-3.86,6.86-1.54,1.86-2.9,2.78-4.1,2.78s-1.76-.83-1.76-2.5c-.01-2.03.82-5.04,2.47-9.03l3.6-8.27-8.4,1.42-2.77,7.07c-.81,2.06-1.36,4.03-1.65,5.92-2.16,2.01-3.56,3.24-4.18,3.68-.64.46-1.3.68-2,.68-.63,0-1.14-.23-1.52-.69-.37-.47-.56-1.09-.56-1.87,0-.84.16-1.8.49-2.88.33-1.09,1.05-3.14,2.17-6.15l2.69-7.13-2.63.11c-2.39,4.39-5.19,6.74-8.39,7.08.87-2.17,1.3-3.85,1.3-5.02,0-1.48-.75-2.22-2.25-2.22-1.78,0-3.17.81-4.18,2.43-1.02,1.63-1.52,3.16-1.52,4.59s.83,2.44,2.49,3.14c-1.04,1.47-2.17,2.86-3.42,4.16-1.63,1.57-2.91,2.75-3.81,3.52-.91.77-1.74,1.16-2.49,1.16-1.17,0-1.76-.8-1.76-2.4s.66-4.34,1.97-8.44l2.55-8.16h-1.62l-5.91,3.14c-.97-2.13-2.65-3.2-5.06-3.2-1.91,0-4.11.78-6.6,2.34s-4.52,3.6-6.12,6.13c-1.25,1.99-2,4.05-2.26,6.19-3.02,3.39-5.22,5.09-6.59,5.09-.95,0-1.42-.56-1.42-1.67,0-.84.57-2.66,1.71-5.47,1.65-4.08,2.48-7.02,2.48-8.8,0-1.07-.32-1.97-.98-2.68-.65-.72-1.47-1.07-2.45-1.07-1.45,0-3.1.65-4.95,1.96-1.86,1.31-4.37,3.66-7.53,7.06.46-2.21,1.44-5.24,2.92-9.08l-7.06,1.31c-1.6,3.34-2.76,6.35-3.48,9.03-.35,1.31-.62,2.66-.8,4.05-1.63,1.75-2.83,2.9-3.6,3.43-.76.53-1.51.79-2.27.79-.42,0-.77-.19-1.05-.57-.28-.38-.42-.88-.42-1.49,0-1.54.6-4.12,1.79-7.72l2.89-8.72h-.34l-7.35,1.48c-2.05,5.16-3.34,9.49-3.87,13v-.21c-2.41,2.28-4.21,3.78-5.38,4.51-1.18.72-2.29,1.09-3.33,1.09s-1.84-.48-2.46-1.43c-.62-.94-.92-2.22-.92-3.84,0-.72.07-2.05.23-3.98,3.85-4.03,6.69-7.82,8.5-11.37s2.72-7.22,2.72-11.01c0-1.33-.18-2.4-.54-3.19-.35-.79-.81-1.18-1.37-1.18-.12,0-.29.04-.52.11l-7.35,2.62c-2.5,4.61-4.63,9.64-6.39,15.1-1.57,4.91-2.44,9.19-2.6,12.83l-2.14,1.94c-1.97,1.76-3.46,2.64-4.46,2.64-1.23,0-1.85-.87-1.85-2.62,0-.91.34-2.5,1.01-4.76.68-2.27,1.93-6.2,3.74-11.79l-7.87,1.54-3.79,11.87c-.36,1.17-1.29,2.54-2.77,4.11-1.49,1.57-2.73,2.35-3.73,2.35-1.39,0-2.09-.89-2.09-2.67.01-2.53,1.6-8.24,4.78-17.15l-7.73,1.49c-2.7,7.02-4.05,12.46-4.05,16.32,0,2.01.45,3.6,1.33,4.77.89,1.17,2.07,1.75,3.53,1.75,1.6,0,3.24-.53,4.92-1.6,1.68-1.07,3.58-2.72,5.7-4.97,0,2,.41,3.59,1.23,4.76s1.99,1.76,3.51,1.76c1.37,0,2.91-.56,4.63-1.66,1.67-1.08,3.73-2.73,6.2-4.97.24,1.73.82,3.17,1.76,4.31,1.27,1.55,2.93,2.32,4.99,2.32,1.8,0,3.68-.56,5.66-1.66,1.9-1.07,4.1-2.7,6.62-4.89-.01.07-.01.13-.01.2,0,1.83.42,3.36,1.27,4.58.85,1.21,1.89,1.82,3.12,1.82,2.2,0,5.48-2.19,9.86-6.59-.02.33-.02.66-.02.99,0,1.23.1,3.1.31,5.6l6.39-1.45c0-1.67.03-3,.09-3.98.1-1.32.29-2.77.58-4.35.17-.92.62-1.81,1.33-2.64l1.62-1.81c.6-.67,1.16-1.27,1.68-1.79.59-.61,1.13-1.13,1.62-1.56.54-.46,1.01-.82,1.41-1.08.45-.26.8-.39,1.07-.39.49,0,.73.29.73.89s-.46,1.99-1.36,4.18c-1.7,4.08-2.55,7.12-2.55,9.11,0,1.46.4,2.64,1.19,3.51s1.83,1.31,3.12,1.31c3.11,0,6.84-2.18,11.17-6.52.2,1.62.76,3.03,1.69,4.22,1.18,1.53,2.62,2.3,4.32,2.3s3.42-.63,5.05-1.9c1.63-1.26,3.41-3.22,5.33-5.88-.17,5.19,1.27,7.78,4.31,7.78,1.22,0,2.49-.43,3.82-1.28,1.33-.86,3.54-2.7,6.62-5.52,2.68-2.56,4.65-4.96,5.9-7.19,1.7-.28,3.26-.77,4.69-1.48-2.91,4.41-4.37,7.92-4.37,10.54,0,1.41.41,2.59,1.22,3.55.81.95,1.8,1.43,2.97,1.43,2.57,0,6.18-2.17,10.86-6.53.04,1.8.5,3.25,1.36,4.36.92,1.17,2.12,1.76,3.6,1.76,2.76,0,5.96-1.96,9.61-5.88l-1.77,5.99c-6.96,2.97-10.44,6.28-10.44,9.94,0,1.21.37,2.18,1.12,2.9.74.72,1.73,1.09,2.96,1.09,2.43,0,4.77-1.02,7-3.05,2.24-2.04,4.26-5.51,6.05-10.41,5.38-2.4,9.29-4.74,11.73-7.02v-3.2c-2.82,3.02-6.43,5.51-10.85,7.46ZM121.24,22.13c1.36-3.43,2.4-5.14,3.11-5.14.33,0,.6.21.81.63.22.42.32.97.32,1.66,0,2.35-.76,5.14-2.28,8.4-1.53,3.25-3.51,6.19-5.96,8.82,1.31-6.16,2.65-10.95,4-14.37ZM186.08,44.17c-1.7,3.17-3.52,4.75-5.45,4.75-.79,0-1.44-.31-1.95-.93s-.77-1.44-.77-2.44c0-2.66.87-5.56,2.59-8.72,1.73-3.16,3.56-4.74,5.48-4.74.81,0,1.46.3,1.94.88.48.59.72,1.4.72,2.44,0,2.67-.85,5.59-2.56,8.76ZM229.28,65.75c-1.1,0-1.65-.62-1.65-1.87s.64-2.47,1.92-3.74c1.28-1.28,3.11-2.42,5.48-3.45-1.69,6.04-3.61,9.06-5.75,9.06Z"/>
  <path class="cls-1" d="M163.78,80.32c-1-1.62-1.5-2.9-1.5-3.83,0-.76.13-1.55.4-2.38.13-.29.2-.56.2-.83,0-.15-.09-.22-.25-.22-.24,0-.94.1-2.1.31-1.17.21-2.33.47-3.48.8-1.34,4.03-3.9,8.27-7.66,12.72-.19.22-.39.45-.58.67-1.49,1.65-2.74,2.48-3.72,2.48s-1.82-.42-2.67-1.26c1.69-4.9,2.54-9.03,2.54-12.4,0-.68-.07-1.25-.22-1.7s-.56-.84-1.21-1.17c-.66-.34-1.7-.5-3.11-.5-3.75,0-6.97,1.47-9.67,4.41-2.52,2.74-3.86,6-4.03,9.75-1.3,1.39-2.31,2.43-3.04,3.13-.78.75-1.5,1.12-2.15,1.12-1.01,0-1.52-.77-1.52-2.32s.57-4.2,1.7-8.18l2.21-7.91h-1.4l-5.11,3.05c-.83-2.07-2.29-3.11-4.37-3.11-1.65,0-3.55.76-5.7,2.27-2.15,1.51-3.91,3.49-5.28,5.94-1.08,1.92-1.73,3.92-1.96,5.99-2.74,3.3-4.64,4.95-5.67,4.95-.3,0-.56-.16-.79-.46-.22-.31-.34-.66-.34-1.06,0-.86.6-2.99,1.8-6.39,1.19-3.4,1.79-5.91,1.79-7.54,0-1.08-.27-1.95-.79-2.6-.53-.66-1.21-.99-2.06-.99-.77,0-1.52.18-2.26.54-.73.36-2.21,1.23-4.42,2.62,2.31-3.28,4.01-6.07,5.09-8.38,1.09-2.32,1.63-4.43,1.63-6.34,0-1.13-.15-2.08-.45-2.83-.3-.76-.67-1.14-1.1-1.14-.23,0-1.16.31-2.79.91-1.62.6-3.52,1.38-5.71,2.33-2.93,5.19-5.07,10.09-6.44,14.72-.75,2.55-1.29,5.21-1.63,7.97-1.91,2-4.6,4.48-7.54,6.24-5.1,3.07-11.4,5.27-17.7,5.11-6.64-.17-12.87-2.19-19.54-8.67-6.38-6.18-8.9-14.89-8.9-25.08,0-7.99,1.77-16.43,5.29-25.3,3.53-8.87,7.93-16.14,13.21-21.79,5.28-5.66,10.24-8.48,14.9-8.48,3.2,0,5.76,1.19,7.69,3.58,1.92,2.39,2.89,5.61,2.89,9.65,0,5.8-1.72,11.14-5.14,16.02-3.43,4.87-7.15,7.31-11.15,7.31-2.8,0-5-1.44-6.6-4.32-2.15,2.25-3.23,4.68-3.23,7.32,0,3.07,1.25,5.58,3.75,7.53,2.51,1.95,5.71,2.92,9.61,2.92,7.4,0,13.87-3.23,19.4-9.69,5.52-6.45,8.29-14.1,8.29-22.92,0-6.78-2.29-12.28-6.87-16.53-4.58-4.24-10.49-6.36-17.74-6.36-8.66,0-17.48,3.1-26.46,9.29s-16.24,14.45-21.79,24.79C2.77,44.41,0,55.31,0,66.76s3.84,20.93,11.52,28.27c7.67,7.33,17.52,11,29.52,11,14.71,0,26.85-7.43,34.52-16.93-.01.46-.02.91-.02,1.38,0,2.21.11,4.26.33,6.15l5.57-1.4c0-4.65.29-8.62.87-11.94,1.4-1.69,2.73-3.02,4-4.01,1.26-.98,2.23-1.47,2.9-1.47s.97.37.97,1.11c0,.65-.41,2.03-1.22,4.16-1.54,3.92-2.3,6.96-2.3,9.12,0,1.28.37,2.34,1.11,3.18.74.83,1.68,1.25,2.81,1.25,2.5,0,5.66-2.12,9.5-6.37.17,1.57.66,2.94,1.45,4.09,1.03,1.49,2.27,2.23,3.74,2.23s2.95-.61,4.36-1.84c1.4-1.22,2.94-3.12,4.61-5.69-.15,5.02,1.09,7.53,3.72,7.53,1.05,0,2.15-.42,3.3-1.24,1.13-.82,2.99-2.55,5.6-5.22.24,1.63.79,3,1.64,4.11,1.2,1.57,2.77,2.35,4.7,2.35,3.1,0,5.84-1.96,8.24-5.89,1.18,1.01,2.37,1.51,3.57,1.51.47,0,1.1-.16,1.9-.49.8-.34,1.63-.91,2.48-1.72,2.96-3.53,5.41-6.97,7.34-10.34.37,1.28,1.12,2.86,2.25,4.75,1.13,1.89,1.7,3.4,1.7,4.54s-.45,2.26-1.34,3.28c-.89,1.02-1.84,1.52-2.86,1.52s-1.73-.73-2.15-2.21c-.42-1.48-.89-2.21-1.42-2.21-.4,0-1.06.6-1.99,1.8-.92,1.21-1.38,2.03-1.38,2.46,0,.74.46,1.43,1.39,2.08.94.65,1.97.97,3.1.97,2.62,0,5.14-1.28,7.58-3.83,2.44-2.56,3.66-5.21,3.66-7.97,0-1.38-.5-2.89-1.49-4.51ZM83.01,78.92c1.08-5,2.47-9.28,4.17-12.83,1.7-3.54,3.01-5.32,3.92-5.32.55,0,.83.54.83,1.62,0,3.55-2.97,9.06-8.92,16.53ZM113.4,86.87c-1.47,3.07-3.04,4.61-4.71,4.61-.68,0-1.24-.31-1.68-.91-.45-.6-.67-1.39-.67-2.36,0-2.58.75-5.39,2.24-8.45,1.49-3.06,3.07-4.59,4.73-4.59.7,0,1.26.28,1.68.85.41.56.62,1.35.62,2.36,0,2.59-.74,5.42-2.21,8.49ZM137.67,82.35c0,2.45.78,4.73,2.35,6.86-1.39,2.36-2.67,3.53-3.85,3.53-.95,0-1.69-.5-2.22-1.51-.54-1.01-.8-2.42-.8-4.24,0-3.27.61-6.14,1.83-8.58,1.23-2.45,2.92-3.68,5.09-3.68.46,0,.82.06,1.07.17-2.31,2.08-3.47,4.57-3.47,7.45Z"/>
</svg>